<?xml version="1.0" encoding="UTF-8" standalone="no"?>
<!DOCTYPE svg PUBLIC "-//W3C//DTD SVG 1.1//EN"
 "http://www.w3.org/Graphics/SVG/1.1/DTD/svg11.dtd">
<!-- Generated by graphviz version 2.43.0 (0)
 -->
<!-- Title: G Pages: 1 -->
<svg width="822pt" height="486pt"
 viewBox="0.00 0.00 821.53 486.00" xmlns="http://www.w3.org/2000/svg" xmlns:xlink="http://www.w3.org/1999/xlink">
<g id="graph0" class="graph" transform="scale(0.47 0.47) rotate(0) translate(4 1037.5)">
<title>G</title>
<polygon fill="white" stroke="transparent" points="-4,4 -4,-1037.5 1756.55,-1037.5 1756.55,4 -4,4"/>
<text text-anchor="middle" x="876.27" y="-1015.1" font-family="Helvetica,sans-Serif" font-size="18.00">Space&#45;Grade Mechanical Fault Detector (top.v)</text>
<text text-anchor="middle" x="876.27" y="-995.1" font-family="Helvetica,sans-Serif" font-size="18.00">Node&#45;RED Style Architecture</text>
<g id="clust1" class="cluster">
<title>cluster_inputs</title>
<polygon fill="none" stroke="#888888" stroke-dasharray="5,2" points="8,-224.16 8,-502.85 185.89,-502.85 185.89,-224.16 8,-224.16"/>
<text text-anchor="middle" x="96.95" y="-484.45" font-family="Helvetica,sans-Serif" font-size="18.00" fill="#555555">External Inputs</text>
</g>
<g id="clust2" class="cluster">
<title>cluster_top</title>
<polygon fill="#f4f8fa" stroke="#0055aa" stroke-width="2" points="262.89,-274.65 262.89,-977.42 1486.89,-977.42 1486.89,-274.65 262.89,-274.65"/>
<text text-anchor="middle" x="874.89" y="-959.02" font-family="Helvetica,sans-Serif" font-size="18.00" fill="#0055aa">GF180 ASIC Internal Modules</text>
</g>
<g id="clust6" class="cluster">
<title>cluster_outputs</title>
<polygon fill="none" stroke="#888888" stroke-dasharray="5,2" points="1580.89,-8.08 1580.89,-373.6 1748.55,-373.6 1748.55,-8.08 1580.89,-8.08"/>
<text text-anchor="middle" x="1664.72" y="-355.2" font-family="Helvetica,sans-Serif" font-size="18.00" fill="#555555">External Outputs</text>
</g>
<!-- sensor_drdy -->
<g id="node1" class="node">
<title>sensor_drdy</title>
<ellipse fill="#e2f0d9" stroke="black" cx="96.55" cy="-436.2" rx="54.58" ry="18"/>
<text text-anchor="middle" x="96.55" y="-433.1" font-family="Helvetica,sans-Serif" font-size="12.00">sensor_drdy</text>
</g>
<!-- spi_apb_inst -->
<g id="node4" class="node">
<title>spi_apb_inst</title>
<path fill="#dae8fc" stroke="black" d="M304.55,-306.2C304.55,-306.2 552.55,-306.2 552.55,-306.2 558.55,-306.2 564.55,-312.2 564.55,-318.2 564.55,-318.2 564.55,-380.2 564.55,-380.2 564.55,-386.2 558.55,-392.2 552.55,-392.2 552.55,-392.2 304.55,-392.2 304.55,-392.2 298.55,-392.2 292.55,-386.2 292.55,-380.2 292.55,-380.2 292.55,-318.2 292.55,-318.2 292.55,-312.2 298.55,-306.2 304.55,-306.2"/>
<text text-anchor="middle" x="353.55" y="-346.1" font-family="Helvetica,sans-Serif" font-size="12.00">spi_apb_interface</text>
<polyline fill="none" stroke="black" points="414.55,-306.2 414.55,-392.2 "/>
<text text-anchor="middle" x="489.55" y="-346.1" font-family="Helvetica,sans-Serif" font-size="12.00">SPI Master + APB Mux</text>
</g>
<!-- sensor_drdy&#45;&gt;spi_apb_inst -->
<g id="edge1" class="edge">
<title>sensor_drdy&#45;&gt;spi_apb_inst</title>
<path fill="none" stroke="#555555" stroke-width="1.5" d="M142.55,-426.41C142.55,-410.29 142.55,-379.95 142.55,-379.95 142.55,-379.95 282.25,-379.95 282.25,-379.95"/>
<polygon fill="#555555" stroke="#555555" stroke-width="1.5" points="282.25,-383.45 292.25,-379.95 282.25,-376.45 282.25,-383.45"/>
<text text-anchor="middle" x="228.55" y="-429.2" font-family="Helvetica,sans-Serif" font-size="10.00"> sync_drdy</text>
</g>
<!-- c_miso -->
<g id="node2" class="node">
<title>c_miso</title>
<ellipse fill="#e2f0d9" stroke="black" cx="96.55" cy="-349.2" rx="35.91" ry="18"/>
<text text-anchor="middle" x="96.55" y="-346.1" font-family="Helvetica,sans-Serif" font-size="12.00">c_miso</text>
</g>
<!-- c_miso&#45;&gt;spi_apb_inst -->
<g id="edge2" class="edge">
<title>c_miso&#45;&gt;spi_apb_inst</title>
<path fill="none" stroke="#555555" stroke-width="1.5" d="M132.39,-349.2C132.39,-349.2 282.32,-349.2 282.32,-349.2"/>
<polygon fill="#555555" stroke="#555555" stroke-width="1.5" points="282.32,-352.7 292.32,-349.2 282.32,-345.7 282.32,-352.7"/>
<text text-anchor="middle" x="228.55" y="-352.2" font-family="Helvetica,sans-Serif" font-size="10.00"> miso</text>
</g>
<!-- tmr_forward_en -->
<g id="node3" class="node">
<title>tmr_forward_en</title>
<ellipse fill="#e2f0d9" stroke="black" cx="96.55" cy="-262.2" rx="68.89" ry="18"/>
<text text-anchor="middle" x="96.55" y="-259.1" font-family="Helvetica,sans-Serif" font-size="12.00">tmr_forward_en</text>
</g>
<!-- tmr_forward_en&#45;&gt;spi_apb_inst -->
<g id="edge3" class="edge">
<title>tmr_forward_en&#45;&gt;spi_apb_inst</title>
<path fill="none" stroke="#555555" stroke-width="1.5" d="M158.55,-270.5C158.55,-286.15 158.55,-318.45 158.55,-318.45 158.55,-318.45 282.36,-318.45 282.36,-318.45"/>
<polygon fill="#555555" stroke="#555555" stroke-width="1.5" points="282.36,-321.95 292.36,-318.45 282.36,-314.95 282.36,-321.95"/>
<text text-anchor="middle" x="228.55" y="-275.2" font-family="Helvetica,sans-Serif" font-size="10.00"> fwd_en</text>
</g>
<!-- tmr_inst -->
<g id="node5" class="node">
<title>tmr_inst</title>
<path fill="#e1d5e7" stroke="black" d="M304.55,-506.2C304.55,-506.2 552.55,-506.2 552.55,-506.2 558.55,-506.2 564.55,-512.2 564.55,-518.2 564.55,-518.2 564.55,-580.2 564.55,-580.2 564.55,-586.2 558.55,-592.2 552.55,-592.2 552.55,-592.2 304.55,-592.2 304.55,-592.2 298.55,-592.2 292.55,-586.2 292.55,-580.2 292.55,-580.2 292.55,-518.2 292.55,-518.2 292.55,-512.2 298.55,-506.2 304.55,-506.2"/>
<text text-anchor="middle" x="342.05" y="-546.1" font-family="Helvetica,sans-Serif" font-size="12.00">tmr_reg_bank</text>
<polyline fill="none" stroke="black" points="391.55,-506.2 391.55,-592.2 "/>
<text text-anchor="middle" x="478.05" y="-546.1" font-family="Helvetica,sans-Serif" font-size="12.00">Triplicated Config &amp; Status</text>
</g>
<!-- spi_apb_inst&#45;&gt;tmr_inst -->
<g id="edge7" class="edge">
<title>spi_apb_inst&#45;&gt;tmr_inst</title>
<path fill="none" stroke="#555555" stroke-width="1.5" d="M360.55,-402.6C360.55,-402.6 360.55,-495.89 360.55,-495.89"/>
<polygon fill="#555555" stroke="#555555" stroke-width="1.5" points="357.05,-495.89 360.55,-505.89 364.05,-495.89 357.05,-495.89"/>
<polygon fill="#555555" stroke="#555555" stroke-width="1.5" points="364.05,-402.6 360.55,-392.6 357.05,-402.6 364.05,-402.6"/>
</g>
<!-- axseq_inst -->
<g id="node6" class="node">
<title>axseq_inst</title>
<path fill="#ffe6cc" stroke="black" d="M764.55,-418.2C764.55,-418.2 988.55,-418.2 988.55,-418.2 994.55,-418.2 1000.55,-424.2 1000.55,-430.2 1000.55,-430.2 1000.55,-492.2 1000.55,-492.2 1000.55,-498.2 994.55,-504.2 988.55,-504.2 988.55,-504.2 764.55,-504.2 764.55,-504.2 758.55,-504.2 752.55,-498.2 752.55,-492.2 752.55,-492.2 752.55,-430.2 752.55,-430.2 752.55,-424.2 758.55,-418.2 764.55,-418.2"/>
<text text-anchor="middle" x="807.05" y="-458.1" font-family="Helvetica,sans-Serif" font-size="12.00">axis_sequencer</text>
<polyline fill="none" stroke="black" points="861.55,-418.2 861.55,-504.2 "/>
<text text-anchor="middle" x="931.05" y="-458.1" font-family="Helvetica,sans-Serif" font-size="12.00">Polls SPI, Feeds Core</text>
</g>
<!-- spi_apb_inst&#45;&gt;axseq_inst -->
<g id="edge8" class="edge">
<title>spi_apb_inst&#45;&gt;axseq_inst</title>
<path fill="none" stroke="#555555" stroke-width="1.5" d="M428.55,-402.45C428.55,-402.45 428.55,-436.2 428.55,-436.2 428.55,-436.2 742.35,-436.2 742.35,-436.2"/>
<polygon fill="#555555" stroke="#555555" stroke-width="1.5" points="432.05,-402.45 428.55,-392.45 425.05,-402.45 432.05,-402.45"/>
<polygon fill="#555555" stroke="#555555" stroke-width="1.5" points="742.35,-439.7 752.35,-436.2 742.35,-432.7 742.35,-439.7"/>
<text text-anchor="middle" x="636.55" y="-358.2" font-family="Helvetica,sans-Serif" font-size="10.00"> Local Req Bus</text>
</g>
<!-- c_csn -->
<g id="node10" class="node">
<title>c_csn</title>
<ellipse fill="#fce4d6" stroke="black" cx="1664.55" cy="-220.2" rx="30.56" ry="18"/>
<text text-anchor="middle" x="1664.55" y="-217.1" font-family="Helvetica,sans-Serif" font-size="12.00">c_csn</text>
</g>
<!-- spi_apb_inst&#45;&gt;c_csn -->
<g id="edge4" class="edge">
<title>spi_apb_inst&#45;&gt;c_csn</title>
<path fill="none" stroke="#555555" stroke-width="1.5" d="M496.55,-305.89C496.55,-268.41 496.55,-220.2 496.55,-220.2 496.55,-220.2 1623.61,-220.2 1623.61,-220.2"/>
<polygon fill="#555555" stroke="#555555" stroke-width="1.5" points="1623.61,-223.7 1633.61,-220.2 1623.61,-216.7 1623.61,-223.7"/>
<text text-anchor="middle" x="1111.55" y="-231.2" font-family="Helvetica,sans-Serif" font-size="10.00"> csn</text>
</g>
<!-- c_sclk -->
<g id="node11" class="node">
<title>c_sclk</title>
<ellipse fill="#fce4d6" stroke="black" cx="1664.55" cy="-133.2" rx="32.02" ry="18"/>
<text text-anchor="middle" x="1664.55" y="-130.1" font-family="Helvetica,sans-Serif" font-size="12.00">c_sclk</text>
</g>
<!-- spi_apb_inst&#45;&gt;c_sclk -->
<g id="edge5" class="edge">
<title>spi_apb_inst&#45;&gt;c_sclk</title>
<path fill="none" stroke="#555555" stroke-width="1.5" d="M428.55,-306.01C428.55,-242.98 428.55,-133.2 428.55,-133.2 428.55,-133.2 1622.44,-133.2 1622.44,-133.2"/>
<polygon fill="#555555" stroke="#555555" stroke-width="1.5" points="1622.44,-136.7 1632.44,-133.2 1622.44,-129.7 1622.44,-136.7"/>
<text text-anchor="middle" x="1111.55" y="-128.2" font-family="Helvetica,sans-Serif" font-size="10.00"> sclk</text>
</g>
<!-- c_mosi -->
<g id="node12" class="node">
<title>c_mosi</title>
<ellipse fill="#fce4d6" stroke="black" cx="1664.55" cy="-46.2" rx="35.91" ry="18"/>
<text text-anchor="middle" x="1664.55" y="-43.1" font-family="Helvetica,sans-Serif" font-size="12.00">c_mosi</text>
</g>
<!-- spi_apb_inst&#45;&gt;c_mosi -->
<g id="edge6" class="edge">
<title>spi_apb_inst&#45;&gt;c_mosi</title>
<path fill="none" stroke="#555555" stroke-width="1.5" d="M360.55,-306.11C360.55,-222.46 360.55,-46.2 360.55,-46.2 360.55,-46.2 1618.65,-46.2 1618.65,-46.2"/>
<polygon fill="#555555" stroke="#555555" stroke-width="1.5" points="1618.65,-49.7 1628.65,-46.2 1618.65,-42.7 1618.65,-49.7"/>
<text text-anchor="middle" x="1111.55" y="-25.2" font-family="Helvetica,sans-Serif" font-size="10.00"> mosi</text>
</g>
<!-- tmr_inst&#45;&gt;axseq_inst -->
<g id="edge11" class="edge">
<title>tmr_inst&#45;&gt;axseq_inst</title>
<path fill="none" stroke="#555555" stroke-width="1.5" stroke-dasharray="5,2" d="M496.55,-505.82C496.55,-491.64 496.55,-479.45 496.55,-479.45 496.55,-479.45 742.38,-479.45 742.38,-479.45"/>
<polygon fill="#555555" stroke="#555555" stroke-width="1.5" points="742.38,-482.95 752.38,-479.45 742.38,-475.95 742.38,-482.95"/>
<text text-anchor="middle" x="636.55" y="-509.2" font-family="Helvetica,sans-Serif" font-size="10.00"> run_enable</text>
</g>
<!-- goertzel_inst -->
<g id="node7" class="node">
<title>goertzel_inst</title>
<path fill="#d5e8d4" stroke="black" d="M1190.55,-415.2C1190.55,-415.2 1444.55,-415.2 1444.55,-415.2 1450.55,-415.2 1456.55,-421.2 1456.55,-427.2 1456.55,-427.2 1456.55,-489.2 1456.55,-489.2 1456.55,-495.2 1450.55,-501.2 1444.55,-501.2 1444.55,-501.2 1190.55,-501.2 1190.55,-501.2 1184.55,-501.2 1178.55,-495.2 1178.55,-489.2 1178.55,-489.2 1178.55,-427.2 1178.55,-427.2 1178.55,-421.2 1184.55,-415.2 1190.55,-415.2"/>
<text text-anchor="middle" x="1227.55" y="-455.1" font-family="Helvetica,sans-Serif" font-size="12.00">goertzel_core</text>
<polyline fill="none" stroke="black" points="1276.55,-415.2 1276.55,-501.2 "/>
<text text-anchor="middle" x="1366.55" y="-455.1" font-family="Helvetica,sans-Serif" font-size="12.00">3&#45;Bin Time&#45;Multiplexed DSP</text>
</g>
<!-- tmr_inst&#45;&gt;goertzel_inst -->
<g id="edge9" class="edge">
<title>tmr_inst&#45;&gt;goertzel_inst</title>
<path fill="none" stroke="#555555" stroke-width="1.5" stroke-dasharray="5,2" d="M564.58,-523.1C782.23,-523.1 1184.55,-523.1 1184.55,-523.1 1184.55,-523.1 1184.55,-511.49 1184.55,-511.49"/>
<polygon fill="#555555" stroke="#555555" stroke-width="1.5" points="1188.05,-511.49 1184.55,-501.49 1181.05,-511.49 1188.05,-511.49"/>
<text text-anchor="middle" x="876.55" y="-358.2" font-family="Helvetica,sans-Serif" font-size="10.00"> cfg_c0/1/2</text>
</g>
<!-- mag_inst -->
<g id="node8" class="node">
<title>mag_inst</title>
<path fill="#d5e8d4" stroke="black" d="M720.55,-607.2C720.55,-607.2 1032.55,-607.2 1032.55,-607.2 1038.55,-607.2 1044.55,-613.2 1044.55,-619.2 1044.55,-619.2 1044.55,-681.2 1044.55,-681.2 1044.55,-687.2 1038.55,-693.2 1032.55,-693.2 1032.55,-693.2 720.55,-693.2 720.55,-693.2 714.55,-693.2 708.55,-687.2 708.55,-681.2 708.55,-681.2 708.55,-619.2 708.55,-619.2 708.55,-613.2 714.55,-607.2 720.55,-607.2"/>
<text text-anchor="middle" x="778.55" y="-647.1" font-family="Helvetica,sans-Serif" font-size="12.00">magnitude_compute</text>
<polyline fill="none" stroke="black" points="848.55,-607.2 848.55,-693.2 "/>
<text text-anchor="middle" x="946.55" y="-647.1" font-family="Helvetica,sans-Serif" font-size="12.00">Shared Multiplier + Mag Block</text>
</g>
<!-- tmr_inst&#45;&gt;mag_inst -->
<g id="edge10" class="edge">
<title>tmr_inst&#45;&gt;mag_inst</title>
<path fill="none" stroke="#555555" stroke-width="1.5" stroke-dasharray="5,2" d="M564.97,-575.3C645,-575.3 730.55,-575.3 730.55,-575.3 730.55,-575.3 730.55,-597.07 730.55,-597.07"/>
<polygon fill="#555555" stroke="#555555" stroke-width="1.5" points="727.05,-597.07 730.55,-607.07 734.05,-597.07 727.05,-597.07"/>
<text text-anchor="middle" x="636.55" y="-631.2" font-family="Helvetica,sans-Serif" font-size="10.00"> cfg_c0/1/2</text>
</g>
<!-- ff_inst -->
<g id="node9" class="node">
<title>ff_inst</title>
<path fill="#f8cecc" stroke="black" d="M1207.55,-609.2C1207.55,-609.2 1427.55,-609.2 1427.55,-609.2 1433.55,-609.2 1439.55,-615.2 1439.55,-621.2 1439.55,-621.2 1439.55,-683.2 1439.55,-683.2 1439.55,-689.2 1433.55,-695.2 1427.55,-695.2 1427.55,-695.2 1207.55,-695.2 1207.55,-695.2 1201.55,-695.2 1195.55,-689.2 1195.55,-683.2 1195.55,-683.2 1195.55,-621.2 1195.55,-621.2 1195.55,-615.2 1201.55,-609.2 1207.55,-609.2"/>
<text text-anchor="middle" x="1241.55" y="-649.1" font-family="Helvetica,sans-Serif" font-size="12.00">fault_flagger</text>
<polyline fill="none" stroke="black" points="1287.55,-609.2 1287.55,-695.2 "/>
<text text-anchor="middle" x="1363.55" y="-649.1" font-family="Helvetica,sans-Serif" font-size="12.00">Threshold Comparator</text>
</g>
<!-- tmr_inst&#45;&gt;ff_inst -->
<g id="edge12" class="edge">
<title>tmr_inst&#45;&gt;ff_inst</title>
<path fill="none" stroke="#555555" stroke-width="1.5" stroke-dasharray="5,2" d="M564.81,-557.9C799.85,-557.9 1256.55,-557.9 1256.55,-557.9 1256.55,-557.9 1256.55,-599.19 1256.55,-599.19"/>
<polygon fill="#555555" stroke="#555555" stroke-width="1.5" points="1253.05,-599.19 1256.55,-609.19 1260.05,-599.19 1253.05,-599.19"/>
<text text-anchor="middle" x="876.55" y="-798.2" font-family="Helvetica,sans-Serif" font-size="10.00"> threshold</text>
</g>
<!-- axseq_inst&#45;&gt;goertzel_inst -->
<g id="edge13" class="edge">
<title>axseq_inst&#45;&gt;goertzel_inst</title>
<path fill="none" stroke="#555555" stroke-width="1.5" d="M1000.56,-445.7C1000.56,-445.7 1168.17,-445.7 1168.17,-445.7"/>
<polygon fill="#555555" stroke="#555555" stroke-width="1.5" points="1168.17,-449.2 1178.17,-445.7 1168.17,-442.2 1168.17,-449.2"/>
<text text-anchor="middle" x="1111.55" y="-458.2" font-family="Helvetica,sans-Serif" font-size="10.00"> core_data</text>
</g>
<!-- axseq_inst&#45;&gt;mag_inst -->
<g id="edge14" class="edge">
<title>axseq_inst&#45;&gt;mag_inst</title>
<path fill="none" stroke="#555555" stroke-width="1.5" d="M876.55,-504.56C876.55,-504.56 876.55,-597.05 876.55,-597.05"/>
<polygon fill="#555555" stroke="#555555" stroke-width="1.5" points="873.05,-597.05 876.55,-607.05 880.05,-597.05 873.05,-597.05"/>
</g>
<!-- axseq_inst&#45;&gt;ff_inst -->
<g id="edge15" class="edge">
<title>axseq_inst&#45;&gt;ff_inst</title>
<path fill="none" stroke="#555555" stroke-width="1.5" d="M1000.58,-473.7C1057.08,-473.7 1111.55,-473.7 1111.55,-473.7 1111.55,-473.7 1111.55,-651.2 1111.55,-651.2 1111.55,-651.2 1185.33,-651.2 1185.33,-651.2"/>
<polygon fill="#555555" stroke="#555555" stroke-width="1.5" points="1185.33,-654.7 1195.33,-651.2 1185.33,-647.7 1185.33,-654.7"/>
<text text-anchor="middle" x="1111.55" y="-525.2" font-family="Helvetica,sans-Serif" font-size="10.00"> block_clear</text>
</g>
<!-- goertzel_inst&#45;&gt;mag_inst -->
<g id="edge16" class="edge">
<title>goertzel_inst&#45;&gt;mag_inst</title>
<path fill="none" stroke="#555555" stroke-width="1.5" d="M1190.55,-511.54C1190.55,-511.54 1190.55,-629.95 1190.55,-629.95 1190.55,-629.95 1054.58,-629.95 1054.58,-629.95"/>
<polygon fill="#555555" stroke="#555555" stroke-width="1.5" points="1194.05,-511.54 1190.55,-501.54 1187.05,-511.54 1194.05,-511.54"/>
<polygon fill="#555555" stroke="#555555" stroke-width="1.5" points="1054.58,-626.45 1044.58,-629.95 1054.58,-633.45 1054.58,-626.45"/>
<text text-anchor="middle" x="1111.55" y="-591.2" font-family="Helvetica,sans-Serif" font-size="10.00"> Shared Mult</text>
</g>
<!-- goertzel_inst&#45;&gt;ff_inst -->
<g id="edge17" class="edge">
<title>goertzel_inst&#45;&gt;ff_inst</title>
<path fill="none" stroke="#555555" stroke-width="1.5" d="M1378.55,-501.26C1378.55,-501.26 1378.55,-598.93 1378.55,-598.93"/>
<polygon fill="#555555" stroke="#555555" stroke-width="1.5" points="1375.05,-598.93 1378.55,-608.93 1382.05,-598.93 1375.05,-598.93"/>
</g>
<!-- mag_inst&#45;&gt;ff_inst -->
<g id="edge18" class="edge">
<title>mag_inst&#45;&gt;ff_inst</title>
<path fill="none" stroke="#555555" stroke-width="1.5" d="M1044.84,-672.45C1044.84,-672.45 1185.46,-672.45 1185.46,-672.45"/>
<polygon fill="#555555" stroke="#555555" stroke-width="1.5" points="1185.46,-675.95 1195.46,-672.45 1185.46,-668.95 1185.46,-675.95"/>
<text text-anchor="middle" x="1111.55" y="-658.2" font-family="Helvetica,sans-Serif" font-size="10.00"> mag_out</text>
</g>
<!-- ff_inst&#45;&gt;tmr_inst -->
<g id="edge19" class="edge">
<title>ff_inst&#45;&gt;tmr_inst</title>
<path fill="none" stroke="#555555" stroke-width="1.5" d="M1317.55,-609.02C1317.55,-577.59 1317.55,-540.5 1317.55,-540.5 1317.55,-540.5 575.02,-540.5 575.02,-540.5"/>
<polygon fill="#555555" stroke="#555555" stroke-width="1.5" points="575.02,-537 565.02,-540.5 575.02,-544 575.02,-537"/>
<text text-anchor="middle" x="876.55" y="-911.2" font-family="Helvetica,sans-Serif" font-size="10.00"> latched_faults</text>
</g>
<!-- fault_flag_out -->
<g id="node13" class="node">
<title>fault_flag_out</title>
<ellipse fill="#fce4d6" stroke="black" cx="1664.55" cy="-307.2" rx="60.16" ry="18"/>
<text text-anchor="middle" x="1664.55" y="-304.1" font-family="Helvetica,sans-Serif" font-size="12.00">fault_flag_out</text>
</g>
<!-- ff_inst&#45;&gt;fault_flag_out -->
<g id="edge20" class="edge">
<title>ff_inst&#45;&gt;fault_flag_out</title>
<path fill="none" stroke="#555555" stroke-width="1.5" d="M1439.89,-652.2C1539.79,-652.2 1664.55,-652.2 1664.55,-652.2 1664.55,-652.2 1664.55,-335.27 1664.55,-335.27"/>
<polygon fill="#555555" stroke="#555555" stroke-width="1.5" points="1668.05,-335.27 1664.55,-325.27 1661.05,-335.27 1668.05,-335.27"/>
<text text-anchor="middle" x="1529.55" y="-478.2" font-family="Helvetica,sans-Serif" font-size="10.00"> fault_flag_out</text>
</g>
</g>
</svg>
