<?xml version="1.0" encoding="UTF-8" standalone="no"?>
<!DOCTYPE svg PUBLIC "-//W3C//DTD SVG 1.1//EN"
 "http://www.w3.org/Graphics/SVG/1.1/DTD/svg11.dtd">
<!-- Generated by graphviz version 2.43.0 (0)
 -->
<!-- Title: G Pages: 1 -->
<svg width="1113pt" height="648pt"
 viewBox="0.00 0.00 1113.16 648.00" xmlns="http://www.w3.org/2000/svg" xmlns:xlink="http://www.w3.org/1999/xlink">
<g id="graph0" class="graph" transform="scale(0.66 0.66) rotate(0) translate(4 982.94)">
<title>G</title>
<polygon fill="#08101e" stroke="transparent" points="-4,4 -4,-982.94 1691.41,-982.94 1691.41,4 -4,4"/>
<text text-anchor="middle" x="843.7" y="-958.94" font-family="Courier,monospace" font-size="20.00" fill="#00e5ff">TOP MODULE CONNECTIONS (GF180 ASIC)</text>
<g id="clust1" class="cluster">
<title>cluster_inputs</title>
<path fill="#08101e" stroke="#888888" stroke-width="2" d="M17,-297.18C17,-297.18 189.2,-297.18 189.2,-297.18 195.2,-297.18 201.2,-303.18 201.2,-309.18 201.2,-309.18 201.2,-639.76 201.2,-639.76 201.2,-645.76 195.2,-651.76 189.2,-651.76 189.2,-651.76 17,-651.76 17,-651.76 11,-651.76 5,-645.76 5,-639.76 5,-639.76 5,-309.18 5,-309.18 5,-303.18 11,-297.18 17,-297.18"/>
<text text-anchor="middle" x="103.1" y="-631.76" font-family="Courier,monospace" font-size="20.00" fill="#888888">EXTERNAL INPUTS</text>
</g>
<g id="clust2" class="cluster">
<title>cluster_top</title>
<path fill="#08101e" stroke="#00e5ff" stroke-width="2" d="M235.2,-346.92C235.2,-346.92 1445.2,-346.92 1445.2,-346.92 1451.2,-346.92 1457.2,-352.92 1457.2,-358.92 1457.2,-358.92 1457.2,-926.73 1457.2,-926.73 1457.2,-932.73 1451.2,-938.73 1445.2,-938.73 1445.2,-938.73 235.2,-938.73 235.2,-938.73 229.2,-938.73 223.2,-932.73 223.2,-926.73 223.2,-926.73 223.2,-358.92 223.2,-358.92 223.2,-352.92 229.2,-346.92 235.2,-346.92"/>
<text text-anchor="middle" x="840.2" y="-918.73" font-family="Courier,monospace" font-size="20.00" fill="#00e5ff">GF180 ASIC &#45; INTERNAL MODULES</text>
</g>
<g id="clust6" class="cluster">
<title>cluster_outputs</title>
<path fill="#08101e" stroke="#888888" stroke-width="2" d="M1491.2,-10.2C1491.2,-10.2 1675.41,-10.2 1675.41,-10.2 1681.41,-10.2 1687.41,-16.2 1687.41,-22.2 1687.41,-22.2 1687.41,-462.47 1687.41,-462.47 1687.41,-468.47 1681.41,-474.47 1675.41,-474.47 1675.41,-474.47 1491.2,-474.47 1491.2,-474.47 1485.2,-474.47 1479.2,-468.47 1479.2,-462.47 1479.2,-462.47 1479.2,-22.2 1479.2,-22.2 1479.2,-16.2 1485.2,-10.2 1491.2,-10.2"/>
<text text-anchor="middle" x="1583.3" y="-454.47" font-family="Courier,monospace" font-size="20.00" fill="#888888">EXTERNAL OUTPUTS</text>
</g>
<!-- sensor_drdy -->
<g id="node1" class="node">
<title>sensor_drdy</title>
<ellipse fill="#182a40" stroke="#ffb000" stroke-width="2" cx="103.41" cy="-564.54" rx="60.89" ry="18"/>
<text text-anchor="middle" x="103.41" y="-561.44" font-family="Courier,monospace" font-size="12.00" fill="#ffffff">sensor_drdy</text>
</g>
<!-- spi_apb_inst -->
<g id="node4" class="node">
<title>spi_apb_inst</title>
<path fill="#111b2d" stroke="#00e5ff" stroke-width="2" d="M272.91,-401.54C272.91,-401.54 559.91,-401.54 559.91,-401.54 565.91,-401.54 571.91,-407.54 571.91,-413.54 571.91,-413.54 571.91,-497.54 571.91,-497.54 571.91,-503.54 565.91,-509.54 559.91,-509.54 559.91,-509.54 272.91,-509.54 272.91,-509.54 266.91,-509.54 260.91,-503.54 260.91,-497.54 260.91,-497.54 260.91,-413.54 260.91,-413.54 260.91,-407.54 266.91,-401.54 272.91,-401.54"/>
<text text-anchor="middle" x="332.91" y="-452.44" font-family="Courier,monospace" font-size="12.00" fill="#ffffff">SPI_APB_INTERFACE</text>
<polyline fill="none" stroke="#00e5ff" stroke-width="2" points="404.91,-401.54 404.91,-509.54 "/>
<text text-anchor="middle" x="488.41" y="-452.44" font-family="Courier,monospace" font-size="12.00" fill="#ffffff">SPI Master + APB Mux</text>
</g>
<!-- sensor_drdy&#45;&gt;spi_apb_inst -->
<g id="edge1" class="edge">
<title>sensor_drdy&#45;&gt;spi_apb_inst</title>
<path fill="none" stroke="#ffb000" stroke-width="2" d="M153.41,-554.12C153.41,-534 153.41,-491.79 153.41,-491.79 153.41,-491.79 250.76,-491.79 250.76,-491.79"/>
<polygon fill="#ffb000" stroke="#ffb000" stroke-width="2" points="250.76,-495.29 260.76,-491.79 250.76,-488.29 250.76,-495.29"/>
</g>
<!-- c_miso -->
<g id="node2" class="node">
<title>c_miso</title>
<ellipse fill="#182a40" stroke="#ffb000" stroke-width="2" cx="103.41" cy="-455.54" rx="38.33" ry="18"/>
<text text-anchor="middle" x="103.41" y="-452.44" font-family="Courier,monospace" font-size="12.00" fill="#ffffff">c_miso</text>
</g>
<!-- c_miso&#45;&gt;spi_apb_inst -->
<g id="edge2" class="edge">
<title>c_miso&#45;&gt;spi_apb_inst</title>
<path fill="none" stroke="#ffb000" stroke-width="2" d="M141.79,-455.54C141.79,-455.54 250.75,-455.54 250.75,-455.54"/>
<polygon fill="#ffb000" stroke="#ffb000" stroke-width="2" points="250.75,-459.04 260.75,-455.54 250.75,-452.04 250.75,-459.04"/>
</g>
<!-- tmr_forward_en -->
<g id="node3" class="node">
<title>tmr_forward_en</title>
<ellipse fill="#182a40" stroke="#ffb000" stroke-width="2" cx="103.41" cy="-345.54" rx="75.2" ry="18"/>
<text text-anchor="middle" x="103.41" y="-342.44" font-family="Courier,monospace" font-size="12.00" fill="#ffffff">tmr_forward_en</text>
</g>
<!-- tmr_forward_en&#45;&gt;spi_apb_inst -->
<g id="edge3" class="edge">
<title>tmr_forward_en&#45;&gt;spi_apb_inst</title>
<path fill="none" stroke="#ffb000" stroke-width="2" d="M172.41,-352.88C172.41,-371.53 172.41,-419.29 172.41,-419.29 172.41,-419.29 250.84,-419.29 250.84,-419.29"/>
<polygon fill="#ffb000" stroke="#ffb000" stroke-width="2" points="250.84,-422.79 260.84,-419.29 250.84,-415.79 250.84,-422.79"/>
</g>
<!-- tmr_inst -->
<g id="node5" class="node">
<title>tmr_inst</title>
<path fill="#111b2d" stroke="#00e5ff" stroke-width="2" d="M265.41,-637.54C265.41,-637.54 567.41,-637.54 567.41,-637.54 573.41,-637.54 579.41,-643.54 579.41,-649.54 579.41,-649.54 579.41,-733.54 579.41,-733.54 579.41,-739.54 573.41,-745.54 567.41,-745.54 567.41,-745.54 265.41,-745.54 265.41,-745.54 259.41,-745.54 253.41,-739.54 253.41,-733.54 253.41,-733.54 253.41,-649.54 253.41,-649.54 253.41,-643.54 259.41,-637.54 265.41,-637.54"/>
<text text-anchor="middle" x="306.91" y="-688.44" font-family="Courier,monospace" font-size="12.00" fill="#ffffff">TMR_REG_BANK</text>
<polyline fill="none" stroke="#00e5ff" stroke-width="2" points="360.41,-637.54 360.41,-745.54 "/>
<text text-anchor="middle" x="469.91" y="-688.44" font-family="Courier,monospace" font-size="12.00" fill="#ffffff">Triplicated Config &amp; Status</text>
</g>
<!-- spi_apb_inst&#45;&gt;tmr_inst -->
<g id="edge7" class="edge">
<title>spi_apb_inst&#45;&gt;tmr_inst</title>
<path fill="none" stroke="#00e5ff" stroke-width="2" d="M416.41,-519.68C416.41,-519.68 416.41,-627.24 416.41,-627.24"/>
<polygon fill="#00e5ff" stroke="#00e5ff" stroke-width="2" points="412.91,-627.24 416.41,-637.24 419.91,-627.24 412.91,-627.24"/>
<polygon fill="#00e5ff" stroke="#00e5ff" stroke-width="2" points="419.91,-519.68 416.41,-509.68 412.91,-519.68 419.91,-519.68"/>
</g>
<!-- axseq_inst -->
<g id="node6" class="node">
<title>axseq_inst</title>
<path fill="#111b2d" stroke="#00e5ff" stroke-width="2" d="M704.41,-401.54C704.41,-401.54 976.41,-401.54 976.41,-401.54 982.41,-401.54 988.41,-407.54 988.41,-413.54 988.41,-413.54 988.41,-497.54 988.41,-497.54 988.41,-503.54 982.41,-509.54 976.41,-509.54 976.41,-509.54 704.41,-509.54 704.41,-509.54 698.41,-509.54 692.41,-503.54 692.41,-497.54 692.41,-497.54 692.41,-413.54 692.41,-413.54 692.41,-407.54 698.41,-401.54 704.41,-401.54"/>
<text text-anchor="middle" x="753.41" y="-452.44" font-family="Courier,monospace" font-size="12.00" fill="#ffffff">AXIS_SEQUENCER</text>
<polyline fill="none" stroke="#00e5ff" stroke-width="2" points="814.41,-401.54 814.41,-509.54 "/>
<text text-anchor="middle" x="901.41" y="-452.44" font-family="Courier,monospace" font-size="12.00" fill="#ffffff">Polls SPI, Feeds Core</text>
</g>
<!-- spi_apb_inst&#45;&gt;axseq_inst -->
<g id="edge8" class="edge">
<title>spi_apb_inst&#45;&gt;axseq_inst</title>
<path fill="none" stroke="#00e5ff" stroke-width="2" d="M582.18,-437.37C582.18,-437.37 682.21,-437.37 682.21,-437.37"/>
<polygon fill="#00e5ff" stroke="#00e5ff" stroke-width="2" points="682.21,-440.87 692.21,-437.37 682.21,-433.87 682.21,-440.87"/>
<polygon fill="#00e5ff" stroke="#00e5ff" stroke-width="2" points="582.18,-433.87 572.18,-437.37 582.18,-440.87 582.18,-433.87"/>
</g>
<!-- c_csn -->
<g id="node10" class="node">
<title>c_csn</title>
<ellipse fill="#182a40" stroke="#00ff00" stroke-width="2" cx="1583.41" cy="-58.54" rx="33.49" ry="18"/>
<text text-anchor="middle" x="1583.41" y="-55.44" font-family="Courier,monospace" font-size="12.00" fill="#ffffff">c_csn</text>
</g>
<!-- spi_apb_inst&#45;&gt;c_csn -->
<g id="edge4" class="edge">
<title>spi_apb_inst&#45;&gt;c_csn</title>
<path fill="none" stroke="#00ff00" stroke-width="2" d="M339.41,-401.17C339.41,-292.44 339.41,-58.54 339.41,-58.54 339.41,-58.54 1540.13,-58.54 1540.13,-58.54"/>
<polygon fill="#00ff00" stroke="#00ff00" stroke-width="2" points="1540.13,-62.04 1550.13,-58.54 1540.13,-55.04 1540.13,-62.04"/>
</g>
<!-- c_sclk -->
<g id="node11" class="node">
<title>c_sclk</title>
<ellipse fill="#182a40" stroke="#00ff00" stroke-width="2" cx="1583.41" cy="-278.54" rx="38.33" ry="18"/>
<text text-anchor="middle" x="1583.41" y="-275.44" font-family="Courier,monospace" font-size="12.00" fill="#ffffff">c_sclk</text>
</g>
<!-- spi_apb_inst&#45;&gt;c_sclk -->
<g id="edge5" class="edge">
<title>spi_apb_inst&#45;&gt;c_sclk</title>
<path fill="none" stroke="#00ff00" stroke-width="2" d="M494.41,-401.47C494.41,-349.42 494.41,-278.54 494.41,-278.54 494.41,-278.54 1534.97,-278.54 1534.97,-278.54"/>
<polygon fill="#00ff00" stroke="#00ff00" stroke-width="2" points="1534.97,-282.04 1544.97,-278.54 1534.97,-275.04 1534.97,-282.04"/>
</g>
<!-- c_mosi -->
<g id="node12" class="node">
<title>c_mosi</title>
<ellipse fill="#182a40" stroke="#00ff00" stroke-width="2" cx="1583.41" cy="-168.54" rx="38.33" ry="18"/>
<text text-anchor="middle" x="1583.41" y="-165.44" font-family="Courier,monospace" font-size="12.00" fill="#ffffff">c_mosi</text>
</g>
<!-- spi_apb_inst&#45;&gt;c_mosi -->
<g id="edge6" class="edge">
<title>spi_apb_inst&#45;&gt;c_mosi</title>
<path fill="none" stroke="#00ff00" stroke-width="2" d="M416.41,-401.22C416.41,-318.01 416.41,-168.54 416.41,-168.54 416.41,-168.54 1534.91,-168.54 1534.91,-168.54"/>
<polygon fill="#00ff00" stroke="#00ff00" stroke-width="2" points="1534.91,-172.04 1544.91,-168.54 1534.91,-165.04 1534.91,-172.04"/>
</g>
<!-- tmr_inst&#45;&gt;axseq_inst -->
<g id="edge11" class="edge">
<title>tmr_inst&#45;&gt;axseq_inst</title>
<path fill="none" stroke="#a0c0ff" stroke-width="2" stroke-dasharray="5,2" d="M574.41,-637.41C574.41,-572.9 574.41,-473.71 574.41,-473.71 574.41,-473.71 682.24,-473.71 682.24,-473.71"/>
<polygon fill="#a0c0ff" stroke="#a0c0ff" stroke-width="2" points="682.24,-477.21 692.24,-473.71 682.24,-470.21 682.24,-477.21"/>
</g>
<!-- goertzel_inst -->
<g id="node7" class="node">
<title>goertzel_inst</title>
<path fill="#111b2d" stroke="#00e5ff" stroke-width="2" d="M1113.41,-502.54C1113.41,-502.54 1415.41,-502.54 1415.41,-502.54 1421.41,-502.54 1427.41,-508.54 1427.41,-514.54 1427.41,-514.54 1427.41,-598.54 1427.41,-598.54 1427.41,-604.54 1421.41,-610.54 1415.41,-610.54 1415.41,-610.54 1113.41,-610.54 1113.41,-610.54 1107.41,-610.54 1101.41,-604.54 1101.41,-598.54 1101.41,-598.54 1101.41,-514.54 1101.41,-514.54 1101.41,-508.54 1107.41,-502.54 1113.41,-502.54"/>
<text text-anchor="middle" x="1158.41" y="-553.44" font-family="Courier,monospace" font-size="12.00" fill="#ffffff">GOERTZEL_CORE</text>
<polyline fill="none" stroke="#00e5ff" stroke-width="2" points="1215.41,-502.54 1215.41,-610.54 "/>
<text text-anchor="middle" x="1321.41" y="-553.44" font-family="Courier,monospace" font-size="12.00" fill="#ffffff">3&#45;Bin Time&#45;Multiplexed DSP</text>
</g>
<!-- tmr_inst&#45;&gt;goertzel_inst -->
<g id="edge9" class="edge">
<title>tmr_inst&#45;&gt;goertzel_inst</title>
<path fill="none" stroke="#a0c0ff" stroke-width="2" stroke-dasharray="5,2" d="M577.41,-637.52C577.41,-616.24 577.41,-596.79 577.41,-596.79 577.41,-596.79 1091.16,-596.79 1091.16,-596.79"/>
<polygon fill="#a0c0ff" stroke="#a0c0ff" stroke-width="2" points="1091.16,-600.29 1101.16,-596.79 1091.16,-593.29 1091.16,-600.29"/>
</g>
<!-- mag_inst -->
<g id="node8" class="node">
<title>mag_inst</title>
<path fill="#111b2d" stroke="#00e5ff" stroke-width="2" d="M663.41,-671.54C663.41,-671.54 1017.41,-671.54 1017.41,-671.54 1023.41,-671.54 1029.41,-677.54 1029.41,-683.54 1029.41,-683.54 1029.41,-767.54 1029.41,-767.54 1029.41,-773.54 1023.41,-779.54 1017.41,-779.54 1017.41,-779.54 663.41,-779.54 663.41,-779.54 657.41,-779.54 651.41,-773.54 651.41,-767.54 651.41,-767.54 651.41,-683.54 651.41,-683.54 651.41,-677.54 657.41,-671.54 663.41,-671.54"/>
<text text-anchor="middle" x="723.41" y="-722.44" font-family="Courier,monospace" font-size="12.00" fill="#ffffff">MAGNITUDE_COMPUTE</text>
<polyline fill="none" stroke="#00e5ff" stroke-width="2" points="795.41,-671.54 795.41,-779.54 "/>
<text text-anchor="middle" x="912.41" y="-722.44" font-family="Courier,monospace" font-size="12.00" fill="#ffffff">Shared Multiplier + Mag Block</text>
</g>
<!-- tmr_inst&#45;&gt;mag_inst -->
<g id="edge10" class="edge">
<title>tmr_inst&#45;&gt;mag_inst</title>
<path fill="none" stroke="#a0c0ff" stroke-width="2" stroke-dasharray="5,2" d="M579.43,-708.54C579.43,-708.54 641.1,-708.54 641.1,-708.54"/>
<polygon fill="#a0c0ff" stroke="#a0c0ff" stroke-width="2" points="641.1,-712.04 651.1,-708.54 641.1,-705.04 641.1,-712.04"/>
</g>
<!-- ff_inst -->
<g id="node9" class="node">
<title>ff_inst</title>
<path fill="#111b2d" stroke="#ff007f" stroke-width="2" d="M1135.91,-704.54C1135.91,-704.54 1392.91,-704.54 1392.91,-704.54 1398.91,-704.54 1404.91,-710.54 1404.91,-716.54 1404.91,-716.54 1404.91,-800.54 1404.91,-800.54 1404.91,-806.54 1398.91,-812.54 1392.91,-812.54 1392.91,-812.54 1135.91,-812.54 1135.91,-812.54 1129.91,-812.54 1123.91,-806.54 1123.91,-800.54 1123.91,-800.54 1123.91,-716.54 1123.91,-716.54 1123.91,-710.54 1129.91,-704.54 1135.91,-704.54"/>
<text text-anchor="middle" x="1180.91" y="-755.44" font-family="Courier,monospace" font-size="12.00" fill="#ffffff">FAULT_FLAGGER</text>
<polyline fill="none" stroke="#ff007f" stroke-width="2" points="1237.91,-704.54 1237.91,-812.54 "/>
<text text-anchor="middle" x="1321.41" y="-755.44" font-family="Courier,monospace" font-size="12.00" fill="#ffffff">Threshold Comparator</text>
</g>
<!-- tmr_inst&#45;&gt;ff_inst -->
<g id="edge12" class="edge">
<title>tmr_inst&#45;&gt;ff_inst</title>
<path fill="none" stroke="#a0c0ff" stroke-width="2" stroke-dasharray="5,2" d="M579.5,-659.71C807.64,-659.71 1194.41,-659.71 1194.41,-659.71 1194.41,-659.71 1194.41,-694.5 1194.41,-694.5"/>
<polygon fill="#a0c0ff" stroke="#a0c0ff" stroke-width="2" points="1190.91,-694.5 1194.41,-704.5 1197.91,-694.5 1190.91,-694.5"/>
</g>
<!-- axseq_inst&#45;&gt;goertzel_inst -->
<g id="edge13" class="edge">
<title>axseq_inst&#45;&gt;goertzel_inst</title>
<path fill="none" stroke="#00e5ff" stroke-width="2" d="M988.7,-504.71C988.7,-504.71 1091.37,-504.71 1091.37,-504.71"/>
<polygon fill="#00e5ff" stroke="#00e5ff" stroke-width="2" points="1091.37,-508.21 1101.37,-504.71 1091.37,-501.21 1091.37,-508.21"/>
</g>
<!-- axseq_inst&#45;&gt;mag_inst -->
<g id="edge14" class="edge">
<title>axseq_inst&#45;&gt;mag_inst</title>
<path fill="none" stroke="#00e5ff" stroke-width="2" d="M840.41,-509.85C840.41,-509.85 840.41,-661.31 840.41,-661.31"/>
<polygon fill="#00e5ff" stroke="#00e5ff" stroke-width="2" points="836.91,-661.31 840.41,-671.31 843.91,-661.31 836.91,-661.31"/>
</g>
<!-- axseq_inst&#45;&gt;ff_inst -->
<g id="edge15" class="edge">
<title>axseq_inst&#45;&gt;ff_inst</title>
<path fill="none" stroke="#00e5ff" stroke-width="2" d="M988.6,-507.37C1030.73,-507.37 1065.41,-507.37 1065.41,-507.37 1065.41,-507.37 1065.41,-729.37 1065.41,-729.37 1065.41,-729.37 1113.77,-729.37 1113.77,-729.37"/>
<polygon fill="#00e5ff" stroke="#00e5ff" stroke-width="2" points="1113.77,-732.87 1123.77,-729.37 1113.77,-725.87 1113.77,-732.87"/>
</g>
<!-- goertzel_inst&#45;&gt;mag_inst -->
<g id="edge16" class="edge">
<title>goertzel_inst&#45;&gt;mag_inst</title>
<path fill="none" stroke="#ffb000" stroke-width="2" d="M1113.41,-620.58C1113.41,-620.58 1113.41,-687.54 1113.41,-687.54 1113.41,-687.54 1039.64,-687.54 1039.64,-687.54"/>
<polygon fill="#ffb000" stroke="#ffb000" stroke-width="2" points="1116.91,-620.58 1113.41,-610.58 1109.91,-620.58 1116.91,-620.58"/>
<polygon fill="#ffb000" stroke="#ffb000" stroke-width="2" points="1039.64,-684.04 1029.64,-687.54 1039.64,-691.04 1039.64,-684.04"/>
</g>
<!-- goertzel_inst&#45;&gt;ff_inst -->
<g id="edge17" class="edge">
<title>goertzel_inst&#45;&gt;ff_inst</title>
<path fill="none" stroke="#00e5ff" stroke-width="2" d="M1335.41,-610.67C1335.41,-610.67 1335.41,-694.26 1335.41,-694.26"/>
<polygon fill="#00e5ff" stroke="#00e5ff" stroke-width="2" points="1331.91,-694.26 1335.41,-704.26 1338.91,-694.26 1331.91,-694.26"/>
</g>
<!-- mag_inst&#45;&gt;ff_inst -->
<g id="edge18" class="edge">
<title>mag_inst&#45;&gt;ff_inst</title>
<path fill="none" stroke="#00ff00" stroke-width="2" d="M1029.47,-754.71C1029.47,-754.71 1113.73,-754.71 1113.73,-754.71"/>
<polygon fill="#00ff00" stroke="#00ff00" stroke-width="2" points="1113.73,-758.21 1123.73,-754.71 1113.73,-751.21 1113.73,-758.21"/>
</g>
<!-- ff_inst&#45;&gt;tmr_inst -->
<g id="edge19" class="edge">
<title>ff_inst&#45;&gt;tmr_inst</title>
<path fill="none" stroke="#ff007f" stroke-width="2" d="M1264.41,-704.42C1264.41,-676.56 1264.41,-648.37 1264.41,-648.37 1264.41,-648.37 589.41,-648.37 589.41,-648.37"/>
<polygon fill="#ff007f" stroke="#ff007f" stroke-width="2" points="589.41,-644.87 579.41,-648.37 589.41,-651.87 589.41,-644.87"/>
</g>
<!-- fault_flag_out -->
<g id="node13" class="node">
<title>fault_flag_out</title>
<ellipse fill="#182a40" stroke="#ff007f" stroke-width="2" cx="1583.41" cy="-387.54" rx="75.2" ry="18"/>
<text text-anchor="middle" x="1583.41" y="-384.44" font-family="Courier,monospace" font-size="12.00" fill="#ff007f">fault_flag_out</text>
</g>
<!-- ff_inst&#45;&gt;fault_flag_out -->
<g id="edge20" class="edge">
<title>ff_inst&#45;&gt;fault_flag_out</title>
<path fill="none" stroke="#ff007f" stroke-width="3" d="M1405.25,-758.54C1490.71,-758.54 1583.41,-758.54 1583.41,-758.54 1583.41,-758.54 1583.41,-415.68 1583.41,-415.68"/>
<polygon fill="#ff007f" stroke="#ff007f" stroke-width="3" points="1586.91,-415.68 1583.41,-405.68 1579.91,-415.68 1586.91,-415.68"/>
</g>
</g>
</svg>
