<?xml version="1.0" encoding="UTF-8" standalone="no"?>
<!DOCTYPE svg PUBLIC "-//W3C//DTD SVG 1.1//EN"
 "http://www.w3.org/Graphics/SVG/1.1/DTD/svg11.dtd">
<!-- Generated by graphviz version 2.43.0 (0)
 -->
<!-- Title: G Pages: 1 -->
<svg width="2845pt" height="332pt"
 viewBox="0.00 0.00 2844.98 332.22" xmlns="http://www.w3.org/2000/svg" xmlns:xlink="http://www.w3.org/1999/xlink">
<g id="graph0" class="graph" transform="scale(1 1) rotate(0) translate(4 328.22)">
<title>G</title>
<polygon fill="white" stroke="transparent" points="-4,4 -4,-328.22 2840.98,-328.22 2840.98,4 -4,4"/>
<!-- sensor_drdy -->
<g id="node1" class="node">
<title>sensor_drdy</title>
<ellipse fill="#e2f0d9" stroke="black" cx="79.2" cy="-234.18" rx="62.87" ry="24.08"/>
<text text-anchor="middle" x="79.2" y="-237.58" font-family="Helvetica,sans-Serif" font-size="12.00">sensor_drdy</text>
<text text-anchor="middle" x="79.2" y="-224.58" font-family="Helvetica,sans-Serif" font-size="12.00">(Input)</text>
</g>
<!-- spi_apb_inst -->
<g id="node8" class="node">
<title>spi_apb_inst</title>
<path fill="#dae8fc" stroke="black" d="M287.39,-150.18C287.39,-150.18 535.39,-150.18 535.39,-150.18 541.39,-150.18 547.39,-156.18 547.39,-162.18 547.39,-162.18 547.39,-174.18 547.39,-174.18 547.39,-180.18 541.39,-186.18 535.39,-186.18 535.39,-186.18 287.39,-186.18 287.39,-186.18 281.39,-186.18 275.39,-180.18 275.39,-174.18 275.39,-174.18 275.39,-162.18 275.39,-162.18 275.39,-156.18 281.39,-150.18 287.39,-150.18"/>
<text text-anchor="middle" x="336.39" y="-165.08" font-family="Helvetica,sans-Serif" font-size="12.00">spi_apb_interface</text>
<polyline fill="none" stroke="black" points="397.39,-150.18 397.39,-186.18 "/>
<text text-anchor="middle" x="472.39" y="-165.08" font-family="Helvetica,sans-Serif" font-size="12.00">SPI Master + APB Mux</text>
</g>
<!-- sensor_drdy&#45;&gt;spi_apb_inst -->
<g id="edge1" class="edge">
<title>sensor_drdy&#45;&gt;spi_apb_inst</title>
<path fill="none" stroke="#555555" d="M135.46,-223.14C183.1,-213.61 253.07,-199.63 310.5,-188.15"/>
<polygon fill="#555555" stroke="#555555" points="311.21,-191.58 320.33,-186.18 309.84,-184.71 311.21,-191.58"/>
<text text-anchor="middle" x="216.89" y="-217.18" font-family="Helvetica,sans-Serif" font-size="10.00"> sync_drdy_trig</text>
</g>
<!-- c_miso -->
<g id="node2" class="node">
<title>c_miso</title>
<ellipse fill="#e2f0d9" stroke="black" cx="79.2" cy="-168.18" rx="41.02" ry="24.08"/>
<text text-anchor="middle" x="79.2" y="-171.58" font-family="Helvetica,sans-Serif" font-size="12.00">c_miso</text>
<text text-anchor="middle" x="79.2" y="-158.58" font-family="Helvetica,sans-Serif" font-size="12.00">(Input)</text>
</g>
<!-- c_miso&#45;&gt;spi_apb_inst -->
<g id="edge2" class="edge">
<title>c_miso&#45;&gt;spi_apb_inst</title>
<path fill="none" stroke="#555555" d="M120.35,-168.18C156.6,-168.18 212.2,-168.18 265.06,-168.18"/>
<polygon fill="#555555" stroke="#555555" points="265.24,-171.68 275.24,-168.18 265.24,-164.68 265.24,-171.68"/>
<text text-anchor="middle" x="216.89" y="-171.18" font-family="Helvetica,sans-Serif" font-size="10.00"> s_miso</text>
</g>
<!-- tmr_forward_en -->
<g id="node3" class="node">
<title>tmr_forward_en</title>
<ellipse fill="#e2f0d9" stroke="black" cx="79.2" cy="-102.18" rx="79.39" ry="24.08"/>
<text text-anchor="middle" x="79.2" y="-105.58" font-family="Helvetica,sans-Serif" font-size="12.00">tmr_forward_en</text>
<text text-anchor="middle" x="79.2" y="-92.58" font-family="Helvetica,sans-Serif" font-size="12.00">(Input)</text>
</g>
<!-- tmr_forward_en&#45;&gt;spi_apb_inst -->
<g id="edge3" class="edge">
<title>tmr_forward_en&#45;&gt;spi_apb_inst</title>
<path fill="none" stroke="#555555" d="M145.83,-115.3C192.84,-124.7 257,-137.52 310.36,-148.19"/>
<polygon fill="#555555" stroke="#555555" points="309.7,-151.63 320.19,-150.15 311.07,-144.76 309.7,-151.63"/>
<text text-anchor="middle" x="216.89" y="-139.18" font-family="Helvetica,sans-Serif" font-size="10.00"> tmr_forward_en</text>
</g>
<!-- c_csn -->
<g id="node4" class="node">
<title>c_csn</title>
<ellipse fill="#fce4d6" stroke="black" cx="866.39" cy="-300.18" rx="47.25" ry="24.08"/>
<text text-anchor="middle" x="866.39" y="-303.58" font-family="Helvetica,sans-Serif" font-size="12.00">c_csn</text>
<text text-anchor="middle" x="866.39" y="-290.58" font-family="Helvetica,sans-Serif" font-size="12.00">(Output)</text>
</g>
<!-- c_sclk -->
<g id="node5" class="node">
<title>c_sclk</title>
<ellipse fill="#fce4d6" stroke="black" cx="866.39" cy="-234.18" rx="47.25" ry="24.08"/>
<text text-anchor="middle" x="866.39" y="-237.58" font-family="Helvetica,sans-Serif" font-size="12.00">c_sclk</text>
<text text-anchor="middle" x="866.39" y="-224.58" font-family="Helvetica,sans-Serif" font-size="12.00">(Output)</text>
</g>
<!-- c_mosi -->
<g id="node6" class="node">
<title>c_mosi</title>
<ellipse fill="#fce4d6" stroke="black" cx="866.39" cy="-168.18" rx="47.25" ry="24.08"/>
<text text-anchor="middle" x="866.39" y="-171.58" font-family="Helvetica,sans-Serif" font-size="12.00">c_mosi</text>
<text text-anchor="middle" x="866.39" y="-158.58" font-family="Helvetica,sans-Serif" font-size="12.00">(Output)</text>
</g>
<!-- fault_flag_out -->
<g id="node7" class="node">
<title>fault_flag_out</title>
<ellipse fill="#fce4d6" stroke="black" cx="2767.69" cy="-103.18" rx="69.09" ry="24.08"/>
<text text-anchor="middle" x="2767.69" y="-106.58" font-family="Helvetica,sans-Serif" font-size="12.00">fault_flag_out</text>
<text text-anchor="middle" x="2767.69" y="-93.58" font-family="Helvetica,sans-Serif" font-size="12.00">(Output)</text>
</g>
<!-- spi_apb_inst&#45;&gt;c_csn -->
<g id="edge4" class="edge">
<title>spi_apb_inst&#45;&gt;c_csn</title>
<path fill="none" stroke="#555555" d="M457.14,-186.3C487.42,-198.2 528.46,-213.64 565.39,-225.18 637.62,-247.76 656.97,-248.87 730.39,-267.18 757.76,-274.01 788.28,-281.48 813.37,-287.59"/>
<polygon fill="#555555" stroke="#555555" points="812.86,-291.07 823.41,-290.03 814.52,-284.27 812.86,-291.07"/>
<text text-anchor="middle" x="638.89" y="-264.18" font-family="Helvetica,sans-Serif" font-size="10.00"> s_csn</text>
</g>
<!-- spi_apb_inst&#45;&gt;c_sclk -->
<g id="edge5" class="edge">
<title>spi_apb_inst&#45;&gt;c_sclk</title>
<path fill="none" stroke="#555555" d="M536.18,-186.22C625.88,-199.29 742.85,-216.33 810.49,-226.18"/>
<polygon fill="#555555" stroke="#555555" points="810.11,-229.67 820.51,-227.64 811.12,-222.74 810.11,-229.67"/>
<text text-anchor="middle" x="638.89" y="-213.18" font-family="Helvetica,sans-Serif" font-size="10.00"> s_clk</text>
</g>
<!-- spi_apb_inst&#45;&gt;c_mosi -->
<g id="edge6" class="edge">
<title>spi_apb_inst&#45;&gt;c_mosi</title>
<path fill="none" stroke="#555555" d="M547.69,-168.18C634.93,-168.18 743.83,-168.18 808.82,-168.18"/>
<polygon fill="#555555" stroke="#555555" points="808.86,-171.68 818.86,-168.18 808.86,-164.68 808.86,-171.68"/>
<text text-anchor="middle" x="638.89" y="-171.18" font-family="Helvetica,sans-Serif" font-size="10.00"> s_mosi</text>
</g>
<!-- tmr_inst -->
<g id="node9" class="node">
<title>tmr_inst</title>
<path fill="#e1d5e7" stroke="black" d="M742.39,-89.18C742.39,-89.18 990.39,-89.18 990.39,-89.18 996.39,-89.18 1002.39,-95.18 1002.39,-101.18 1002.39,-101.18 1002.39,-113.18 1002.39,-113.18 1002.39,-119.18 996.39,-125.18 990.39,-125.18 990.39,-125.18 742.39,-125.18 742.39,-125.18 736.39,-125.18 730.39,-119.18 730.39,-113.18 730.39,-113.18 730.39,-101.18 730.39,-101.18 730.39,-95.18 736.39,-89.18 742.39,-89.18"/>
<text text-anchor="middle" x="779.89" y="-104.08" font-family="Helvetica,sans-Serif" font-size="12.00">tmr_reg_bank</text>
<polyline fill="none" stroke="black" points="829.39,-89.18 829.39,-125.18 "/>
<text text-anchor="middle" x="915.89" y="-104.08" font-family="Helvetica,sans-Serif" font-size="12.00">Triplicated Config &amp; Status</text>
</g>
<!-- spi_apb_inst&#45;&gt;tmr_inst -->
<g id="edge7" class="edge">
<title>spi_apb_inst&#45;&gt;tmr_inst</title>
<path fill="none" stroke="#555555" d="M524.01,-148.52C537.93,-146.27 551.98,-144.1 565.39,-142.18 615.65,-134.99 670.81,-128.23 719.97,-122.6"/>
<polygon fill="#555555" stroke="#555555" points="523.22,-145.1 513.92,-150.17 524.35,-152.01 523.22,-145.1"/>
<polygon fill="#555555" stroke="#555555" points="720.5,-126.06 730.05,-121.46 719.71,-119.11 720.5,-126.06"/>
<text text-anchor="middle" x="638.89" y="-156.18" font-family="Helvetica,sans-Serif" font-size="10.00"> APB Bus</text>
<text text-anchor="middle" x="638.89" y="-145.18" font-family="Helvetica,sans-Serif" font-size="10.00">(p_addr, pwdata, prdata, psel)</text>
</g>
<!-- axseq_inst -->
<g id="node10" class="node">
<title>axseq_inst</title>
<path fill="#ffe6cc" stroke="black" d="M1108.39,-5.18C1108.39,-5.18 1332.39,-5.18 1332.39,-5.18 1338.39,-5.18 1344.39,-11.18 1344.39,-17.18 1344.39,-17.18 1344.39,-29.18 1344.39,-29.18 1344.39,-35.18 1338.39,-41.18 1332.39,-41.18 1332.39,-41.18 1108.39,-41.18 1108.39,-41.18 1102.39,-41.18 1096.39,-35.18 1096.39,-29.18 1096.39,-29.18 1096.39,-17.18 1096.39,-17.18 1096.39,-11.18 1102.39,-5.18 1108.39,-5.18"/>
<text text-anchor="middle" x="1150.89" y="-20.08" font-family="Helvetica,sans-Serif" font-size="12.00">axis_sequencer</text>
<polyline fill="none" stroke="black" points="1205.39,-5.18 1205.39,-41.18 "/>
<text text-anchor="middle" x="1274.89" y="-20.08" font-family="Helvetica,sans-Serif" font-size="12.00">Polls SPI, Feeds Core</text>
</g>
<!-- spi_apb_inst&#45;&gt;axseq_inst -->
<g id="edge8" class="edge">
<title>spi_apb_inst&#45;&gt;axseq_inst</title>
<path fill="none" stroke="#555555" d="M462.56,-145.97C524.25,-119.76 632.8,-77.23 730.39,-57.18 849.16,-32.78 987.2,-25.01 1086.27,-22.92"/>
<polygon fill="#555555" stroke="#555555" points="460.88,-142.88 453.07,-150.03 463.64,-149.31 460.88,-142.88"/>
<polygon fill="#555555" stroke="#555555" points="1086.41,-26.41 1096.34,-22.72 1086.27,-19.42 1086.41,-26.41"/>
<text text-anchor="middle" x="866.39" y="-71.18" font-family="Helvetica,sans-Serif" font-size="10.00"> Local Req Bus</text>
<text text-anchor="middle" x="866.39" y="-60.18" font-family="Helvetica,sans-Serif" font-size="10.00">(req, addr, wdata, rdata)</text>
</g>
<!-- tmr_inst&#45;&gt;axseq_inst -->
<g id="edge11" class="edge">
<title>tmr_inst&#45;&gt;axseq_inst</title>
<path fill="none" stroke="#555555" stroke-dasharray="5,2" d="M916.47,-89.11C946.22,-78.67 985.13,-65.91 1020.39,-57.18 1041.81,-51.89 1064.72,-47.14 1087.1,-42.99"/>
<polygon fill="#555555" stroke="#555555" points="1087.78,-46.42 1096.99,-41.19 1086.53,-39.54 1087.78,-46.42"/>
<text text-anchor="middle" x="1049.39" y="-60.18" font-family="Helvetica,sans-Serif" font-size="10.00"> run_enable</text>
</g>
<!-- goertzel_inst -->
<g id="node11" class="node">
<title>goertzel_inst</title>
<path fill="#d5e8d4" stroke="black" d="M1477.39,-55.18C1477.39,-55.18 1731.39,-55.18 1731.39,-55.18 1737.39,-55.18 1743.39,-61.18 1743.39,-67.18 1743.39,-67.18 1743.39,-79.18 1743.39,-79.18 1743.39,-85.18 1737.39,-91.18 1731.39,-91.18 1731.39,-91.18 1477.39,-91.18 1477.39,-91.18 1471.39,-91.18 1465.39,-85.18 1465.39,-79.18 1465.39,-79.18 1465.39,-67.18 1465.39,-67.18 1465.39,-61.18 1471.39,-55.18 1477.39,-55.18"/>
<text text-anchor="middle" x="1514.39" y="-70.08" font-family="Helvetica,sans-Serif" font-size="12.00">goertzel_core</text>
<polyline fill="none" stroke="black" points="1563.39,-55.18 1563.39,-91.18 "/>
<text text-anchor="middle" x="1653.39" y="-70.08" font-family="Helvetica,sans-Serif" font-size="12.00">3&#45;Bin Time&#45;Multiplexed DSP</text>
</g>
<!-- tmr_inst&#45;&gt;goertzel_inst -->
<g id="edge9" class="edge">
<title>tmr_inst&#45;&gt;goertzel_inst</title>
<path fill="none" stroke="#555555" stroke-dasharray="5,2" d="M1002.4,-100.64C1033.29,-99.16 1065.98,-97.6 1096.39,-96.18 1217.01,-90.55 1353.78,-84.36 1454.85,-79.82"/>
<polygon fill="#555555" stroke="#555555" points="1455.3,-83.3 1465.13,-79.36 1454.98,-76.31 1455.3,-83.3"/>
<text text-anchor="middle" x="1220.39" y="-110.18" font-family="Helvetica,sans-Serif" font-size="10.00"> cfg_c0/c1/c2</text>
<text text-anchor="middle" x="1220.39" y="-99.18" font-family="Helvetica,sans-Serif" font-size="10.00">run_enable</text>
</g>
<!-- mag_inst -->
<g id="node12" class="node">
<title>mag_inst</title>
<path fill="#d5e8d4" stroke="black" d="M1915.39,-28.18C1915.39,-28.18 2227.39,-28.18 2227.39,-28.18 2233.39,-28.18 2239.39,-34.18 2239.39,-40.18 2239.39,-40.18 2239.39,-52.18 2239.39,-52.18 2239.39,-58.18 2233.39,-64.18 2227.39,-64.18 2227.39,-64.18 1915.39,-64.18 1915.39,-64.18 1909.39,-64.18 1903.39,-58.18 1903.39,-52.18 1903.39,-52.18 1903.39,-40.18 1903.39,-40.18 1903.39,-34.18 1909.39,-28.18 1915.39,-28.18"/>
<text text-anchor="middle" x="1973.39" y="-43.08" font-family="Helvetica,sans-Serif" font-size="12.00">magnitude_compute</text>
<polyline fill="none" stroke="black" points="2043.39,-28.18 2043.39,-64.18 "/>
<text text-anchor="middle" x="2141.39" y="-43.08" font-family="Helvetica,sans-Serif" font-size="12.00">Shared Multiplier + Mag Block</text>
</g>
<!-- tmr_inst&#45;&gt;mag_inst -->
<g id="edge10" class="edge">
<title>tmr_inst&#45;&gt;mag_inst</title>
<path fill="none" stroke="#555555" stroke-dasharray="5,2" d="M1002.67,-114.76C1033.47,-116.18 1066.05,-117.46 1096.39,-118.18 1447.18,-126.6 1538.55,-143.28 1885.39,-90.18 1922.22,-84.55 1962.53,-75.33 1996.1,-66.78"/>
<polygon fill="#555555" stroke="#555555" points="1997.02,-70.16 2005.83,-64.27 1995.28,-63.38 1997.02,-70.16"/>
<text text-anchor="middle" x="1404.89" y="-131.18" font-family="Helvetica,sans-Serif" font-size="10.00"> cfg_c0/c1/c2</text>
</g>
<!-- ff_inst -->
<g id="node13" class="node">
<title>ff_inst</title>
<path fill="#f8cecc" stroke="black" d="M2360.39,-85.18C2360.39,-85.18 2580.39,-85.18 2580.39,-85.18 2586.39,-85.18 2592.39,-91.18 2592.39,-97.18 2592.39,-97.18 2592.39,-109.18 2592.39,-109.18 2592.39,-115.18 2586.39,-121.18 2580.39,-121.18 2580.39,-121.18 2360.39,-121.18 2360.39,-121.18 2354.39,-121.18 2348.39,-115.18 2348.39,-109.18 2348.39,-109.18 2348.39,-97.18 2348.39,-97.18 2348.39,-91.18 2354.39,-85.18 2360.39,-85.18"/>
<text text-anchor="middle" x="2394.39" y="-100.08" font-family="Helvetica,sans-Serif" font-size="12.00">fault_flagger</text>
<polyline fill="none" stroke="black" points="2440.39,-85.18 2440.39,-121.18 "/>
<text text-anchor="middle" x="2516.39" y="-100.08" font-family="Helvetica,sans-Serif" font-size="12.00">Threshold Comparator</text>
</g>
<!-- tmr_inst&#45;&gt;ff_inst -->
<g id="edge12" class="edge">
<title>tmr_inst&#45;&gt;ff_inst</title>
<path fill="none" stroke="#555555" stroke-dasharray="5,2" d="M988.76,-125.3C993.6,-128.18 998.18,-131.46 1002.39,-135.18 1021.03,-151.66 1001.86,-171.58 1020.39,-188.18 1087.86,-248.62 1128.81,-232.18 1219.39,-232.18 1219.39,-232.18 1219.39,-232.18 2072.39,-232.18 2188.71,-232.18 2221.48,-229.04 2330.39,-188.18 2370.06,-173.3 2410.9,-146.73 2437.95,-127.25"/>
<polygon fill="#555555" stroke="#555555" points="2440.23,-129.93 2446.23,-121.2 2436.09,-124.27 2440.23,-129.93"/>
<text text-anchor="middle" x="1604.39" y="-246.18" font-family="Helvetica,sans-Serif" font-size="10.00"> cfg_threshold</text>
<text text-anchor="middle" x="1604.39" y="-235.18" font-family="Helvetica,sans-Serif" font-size="10.00">cfg_fault_clear</text>
</g>
<!-- axseq_inst&#45;&gt;goertzel_inst -->
<g id="edge13" class="edge">
<title>axseq_inst&#45;&gt;goertzel_inst</title>
<path fill="none" stroke="#555555" d="M1344.67,-25.57C1378.12,-27.35 1414.25,-30.31 1447.39,-35.18 1475.03,-39.25 1504.93,-45.95 1531.09,-52.61"/>
<polygon fill="#555555" stroke="#555555" points="1530.36,-56.03 1540.92,-55.15 1532.11,-49.26 1530.36,-56.03"/>
<text text-anchor="middle" x="1404.89" y="-60.18" font-family="Helvetica,sans-Serif" font-size="10.00"> core_data_ready</text>
<text text-anchor="middle" x="1404.89" y="-49.18" font-family="Helvetica,sans-Serif" font-size="10.00">core_x_n</text>
<text text-anchor="middle" x="1404.89" y="-38.18" font-family="Helvetica,sans-Serif" font-size="10.00">block_clear</text>
</g>
<!-- axseq_inst&#45;&gt;mag_inst -->
<g id="edge14" class="edge">
<title>axseq_inst&#45;&gt;mag_inst</title>
<path fill="none" stroke="#555555" d="M1344.57,-20.75C1450.37,-19.24 1606.97,-18.39 1743.39,-23.18 1792.08,-24.89 1844.77,-28.03 1893.34,-31.45"/>
<polygon fill="#555555" stroke="#555555" points="1893.09,-34.94 1903.32,-32.16 1893.59,-27.96 1893.09,-34.94"/>
<text text-anchor="middle" x="1604.39" y="-37.18" font-family="Helvetica,sans-Serif" font-size="10.00"> current_axis</text>
<text text-anchor="middle" x="1604.39" y="-26.18" font-family="Helvetica,sans-Serif" font-size="10.00">block_clear_in</text>
</g>
<!-- axseq_inst&#45;&gt;ff_inst -->
<g id="edge15" class="edge">
<title>axseq_inst&#45;&gt;ff_inst</title>
<path fill="none" stroke="#555555" d="M1344.75,-14.71C1536.6,-3.31 1917.84,12.26 2239.39,-18.18 2280.2,-22.05 2291.42,-20.49 2330.39,-33.18 2366.17,-44.84 2404.15,-64.53 2431.36,-80.06"/>
<polygon fill="#555555" stroke="#555555" points="2429.74,-83.17 2440.15,-85.15 2433.25,-77.11 2429.74,-83.17"/>
<text text-anchor="middle" x="1823.39" y="-4.18" font-family="Helvetica,sans-Serif" font-size="10.00"> block_clear</text>
</g>
<!-- goertzel_inst&#45;&gt;mag_inst -->
<g id="edge16" class="edge">
<title>goertzel_inst&#45;&gt;mag_inst</title>
<path fill="none" stroke="#555555" d="M1753.71,-64.57C1798.02,-62 1847.04,-59.15 1893.02,-56.48"/>
<polygon fill="#555555" stroke="#555555" points="1753.43,-61.08 1743.65,-65.16 1753.83,-68.07 1753.43,-61.08"/>
<polygon fill="#555555" stroke="#555555" points="1893.3,-59.97 1903.08,-55.9 1892.9,-52.98 1893.3,-59.97"/>
<text text-anchor="middle" x="1823.39" y="-78.18" font-family="Helvetica,sans-Serif" font-size="10.00"> Shared Mult (req, a, b, q)</text>
<text text-anchor="middle" x="1823.39" y="-67.18" font-family="Helvetica,sans-Serif" font-size="10.00">State (v1, v2)</text>
</g>
<!-- goertzel_inst&#45;&gt;ff_inst -->
<g id="edge17" class="edge">
<title>goertzel_inst&#45;&gt;ff_inst</title>
<path fill="none" stroke="#555555" d="M1743.57,-87.97C1749.59,-88.42 1755.55,-88.83 1761.39,-89.18 1962.42,-101.46 2196.08,-103.76 2338.3,-103.82"/>
<polygon fill="#555555" stroke="#555555" points="2338.38,-107.32 2348.38,-103.82 2338.38,-100.32 2338.38,-107.32"/>
<text text-anchor="middle" x="2071.39" y="-107.18" font-family="Helvetica,sans-Serif" font-size="10.00"> sample_done</text>
</g>
<!-- mag_inst&#45;&gt;ff_inst -->
<g id="edge18" class="edge">
<title>mag_inst&#45;&gt;ff_inst</title>
<path fill="none" stroke="#555555" d="M2239.54,-35.75C2269.98,-36.61 2301.29,-39.36 2330.39,-45.18 2364.45,-52 2400.59,-67.36 2427.48,-80.56"/>
<polygon fill="#555555" stroke="#555555" points="2426.08,-83.78 2436.59,-85.12 2429.21,-77.52 2426.08,-83.78"/>
<text text-anchor="middle" x="2293.89" y="-81.18" font-family="Helvetica,sans-Serif" font-size="10.00"> mag_out</text>
<text text-anchor="middle" x="2293.89" y="-70.18" font-family="Helvetica,sans-Serif" font-size="10.00">mag_bin_idx</text>
<text text-anchor="middle" x="2293.89" y="-59.18" font-family="Helvetica,sans-Serif" font-size="10.00">mag_axis_idx</text>
<text text-anchor="middle" x="2293.89" y="-48.18" font-family="Helvetica,sans-Serif" font-size="10.00">mag_out_valid</text>
</g>
<!-- ff_inst&#45;&gt;fault_flag_out -->
<g id="edge20" class="edge">
<title>ff_inst&#45;&gt;fault_flag_out</title>
<path fill="none" stroke="#555555" d="M2592.78,-103.18C2624.94,-103.18 2658.81,-103.18 2688.04,-103.18"/>
<polygon fill="#555555" stroke="#555555" points="2688.17,-106.68 2698.17,-103.18 2688.17,-99.68 2688.17,-106.68"/>
<text text-anchor="middle" x="2645.39" y="-106.18" font-family="Helvetica,sans-Serif" font-size="10.00"> fault_flag_out</text>
</g>
<!-- ff_inst&#45;&gt;tmr_inst -->
<g id="edge19" class="edge">
<title>ff_inst&#45;&gt;tmr_inst</title>
<path fill="none" stroke="#555555" d="M2407.77,-121.19C2330.24,-142.23 2192.65,-174.18 2072.39,-174.18 1219.39,-174.18 1219.39,-174.18 1219.39,-174.18 1206.71,-174.18 1067.23,-146.97 967.72,-127.23"/>
<polygon fill="#555555" stroke="#555555" points="968.1,-123.74 957.61,-125.23 966.74,-130.61 968.1,-123.74"/>
<text text-anchor="middle" x="1604.39" y="-188.18" font-family="Helvetica,sans-Serif" font-size="10.00"> fault_flag</text>
<text text-anchor="middle" x="1604.39" y="-177.18" font-family="Helvetica,sans-Serif" font-size="10.00">latched fault data</text>
</g>
</g>
</svg>
